<?xml version="1.0" standalone="no"?>
<!DOCTYPE svg PUBLIC "-//W3C//DTD SVG 20010904//EN"
 "http://www.w3.org/TR/2001/REC-SVG-20010904/DTD/svg10.dtd">
<svg version="1.0" xmlns="http://www.w3.org/2000/svg"
 width="1209.000000pt" height="1060.000000pt" viewBox="0 0 1209.000000 1060.000000"
 preserveAspectRatio="xMidYMid meet">

<g transform="translate(0.000000,1060.000000) scale(0.100000,-0.100000)"
fill="#000000" stroke="none">
<path d="M7735 10585 c-66 -7 -156 -13 -200 -14 -44 -1 -95 -5 -114 -11 -19
-5 -70 -14 -115 -20 -144 -19 -314 -61 -526 -131 -98 -32 -317 -126 -370 -159
-8 -5 -37 -21 -65 -36 -27 -14 -69 -39 -93 -55 -24 -16 -45 -29 -48 -29 -13 0
-175 -123 -273 -206 -41 -36 -217 -210 -252 -250 -14 -17 -53 -64 -86 -106
-33 -42 -66 -82 -72 -90 -33 -39 -151 -205 -151 -213 0 -3 -19 -33 -43 -68
-24 -34 -58 -87 -76 -117 -17 -30 -36 -62 -41 -70 -58 -92 -226 -412 -295
-565 -47 -104 -76 -169 -104 -235 -18 -41 -36 -84 -41 -95 -4 -11 -10 -27 -13
-35 -3 -8 -26 -64 -51 -125 -25 -60 -46 -114 -46 -120 -1 -5 -9 -28 -20 -50
-11 -22 -19 -44 -20 -48 0 -5 -6 -23 -13 -40 -17 -40 -61 -164 -99 -282 -17
-49 -36 -106 -42 -125 -32 -87 -45 -127 -80 -249 -8 -30 -19 -58 -24 -63 -6
-6 -34 -4 -73 6 -35 8 -142 24 -236 36 -218 25 -628 28 -798 5 -225 -30 -252
-34 -320 -49 -144 -31 -304 -72 -340 -86 -11 -5 -40 -15 -65 -23 -59 -19 -197
-70 -235 -87 -92 -40 -130 -58 -230 -107 -60 -30 -128 -66 -150 -79 -22 -13
-47 -27 -55 -31 -8 -4 -33 -18 -55 -32 -22 -14 -48 -30 -58 -36 -61 -35 -332
-234 -379 -278 -8 -7 -47 -41 -88 -77 -120 -104 -273 -259 -392 -398 -97 -112
-308 -402 -308 -422 0 -6 -5 -10 -10 -10 -6 0 -14 -10 -19 -23 -5 -13 -21 -41
-36 -63 -15 -21 -31 -48 -36 -59 -5 -11 -21 -40 -35 -65 -37 -64 -129 -246
-154 -305 -28 -67 -50 -114 -66 -148 -8 -16 -14 -33 -14 -39 0 -5 -6 -24 -14
-41 -8 -18 -26 -68 -41 -112 -14 -44 -30 -89 -35 -100 -4 -11 -13 -40 -19 -65
-6 -25 -20 -76 -31 -115 -11 -38 -27 -104 -35 -145 -8 -41 -19 -98 -25 -127
-7 -34 -10 -258 -8 -650 3 -534 5 -605 21 -668 42 -165 83 -305 103 -352 8
-17 14 -35 14 -40 0 -5 16 -47 35 -93 19 -46 35 -90 35 -97 0 -7 9 -18 19 -25
10 -6 17 -17 14 -25 -3 -7 4 -28 16 -46 12 -19 21 -42 21 -51 0 -9 4 -16 9
-16 5 0 14 -12 20 -27 27 -69 204 -351 254 -404 9 -11 17 -22 17 -25 0 -15
104 -123 113 -117 6 3 7 1 3 -6 -10 -15 13 -43 27 -34 6 4 7 1 3 -6 -10 -16
346 -370 372 -371 4 0 25 -16 47 -35 48 -42 48 -42 105 -80 25 -16 47 -32 50
-35 7 -7 118 -73 265 -157 30 -17 101 -52 185 -90 41 -19 93 -43 116 -54 23
-10 47 -19 53 -19 7 0 22 -5 34 -12 41 -22 256 -95 352 -119 22 -5 57 -16 78
-24 20 -8 48 -15 61 -15 13 0 46 -7 72 -14 101 -30 367 -79 494 -91 36 -4 81
-10 100 -15 81 -20 533 -45 790 -44 397 2 997 53 1340 114 58 10 121 21 140
23 39 5 124 21 220 43 36 8 90 18 120 24 51 9 90 17 245 54 33 7 92 21 130 30
39 9 84 21 101 26 16 6 50 14 75 20 46 10 138 35 254 70 39 12 90 26 115 32
25 6 50 14 55 18 6 5 28 11 50 15 22 4 45 11 50 16 6 4 29 12 50 18 54 13 133
39 173 57 18 8 43 14 55 14 12 0 31 7 41 15 11 8 27 15 35 15 9 0 29 7 44 15
15 8 42 19 60 24 18 5 57 19 87 31 30 12 69 26 87 31 18 5 45 16 60 24 15 8
33 15 40 15 11 0 27 7 101 44 19 9 38 16 43 16 6 0 44 16 85 35 41 19 77 35
80 35 3 0 26 9 52 21 26 11 56 24 67 29 151 64 245 111 245 121 0 6 5 7 10 4
12 -8 490 230 610 303 19 12 60 34 90 49 30 15 57 30 60 34 3 3 24 16 47 29
23 13 39 28 36 33 -3 6 -1 7 4 4 10 -7 135 63 258 144 33 21 67 42 75 46 8 4
36 22 61 40 26 18 51 33 57 33 6 0 12 3 14 8 2 4 23 20 48 37 25 16 47 32 50
35 3 3 25 18 50 35 25 16 64 43 86 60 23 16 52 37 64 45 12 8 30 22 40 30 10
8 31 24 46 35 71 52 250 191 269 210 11 11 19 24 17 28 -1 5 2 6 7 3 9 -6 48
23 161 122 147 130 215 195 212 204 -1 5 2 7 7 4 11 -7 241 220 389 383 53 58
99 108 102 111 3 3 23 28 45 55 21 28 42 52 46 55 7 6 144 182 174 224 11 16
25 33 30 40 15 17 54 73 99 141 22 33 42 62 45 65 3 3 11 14 18 25 175 291
220 372 296 535 59 125 77 168 77 182 0 7 7 22 15 32 8 11 15 28 15 38 0 9 7
32 14 50 37 82 83 286 97 428 14 133 14 133 0 265 -16 158 -53 283 -113 388
-16 26 -28 52 -28 56 0 5 -31 49 -69 98 -66 86 -131 151 -220 223 -23 19 -48
40 -54 45 -30 26 -166 109 -233 142 -10 5 -34 17 -52 26 -19 9 -38 17 -44 17
-5 0 -24 7 -41 15 -91 43 -289 84 -547 115 -117 14 -540 12 -683 -4 -150 -15
-157 -10 -85 67 87 92 115 126 224 264 57 73 104 137 104 142 0 5 3 11 8 13
10 4 108 154 168 258 43 74 120 225 144 285 5 11 17 40 28 65 48 109 100 283
122 405 4 28 16 93 25 145 21 118 16 447 -9 580 -26 138 -63 276 -96 355 -56
132 -82 189 -108 235 -18 30 -38 66 -44 80 -17 34 -167 247 -204 288 -42 49
-214 222 -257 259 -123 105 -264 206 -277 198 -6 -4 -10 -1 -10 4 0 13 -68 58
-172 115 -29 15 -60 34 -69 42 -8 8 -19 14 -23 14 -9 0 -80 31 -161 71 -33 16
-64 29 -68 29 -5 0 -27 9 -50 19 -24 11 -55 23 -70 26 -15 4 -30 11 -33 16 -3
5 -15 9 -27 9 -12 0 -35 7 -51 15 -15 8 -33 15 -40 15 -6 0 -42 9 -81 21 -148
44 -179 51 -355 80 -169 28 -257 39 -400 49 -85 6 -173 13 -195 15 -22 1 -94
-3 -160 -10z m440 -1570 c130 -24 285 -66 380 -102 69 -27 205 -96 205 -105 0
-4 7 -8 15 -8 29 0 149 -134 185 -206 35 -69 35 -69 35 -209 0 -159 -4 -175
-88 -355 -44 -95 -156 -271 -200 -314 -10 -10 -16 -24 -13 -32 3 -7 0 -11 -7
-9 -7 2 -34 -25 -61 -60 -96 -124 -384 -419 -582 -594 -27 -24 -69 -62 -94
-85 -25 -22 -70 -61 -99 -86 -30 -25 -59 -49 -65 -55 -10 -9 -156 -128 -181
-148 -5 -4 -22 -18 -38 -32 -15 -13 -63 -52 -107 -85 -47 -36 -78 -66 -74 -72
4 -7 2 -8 -4 -4 -7 4 -41 -16 -79 -47 -88 -70 -284 -217 -289 -217 -2 0 -13
-8 -23 -17 -11 -10 -60 -47 -111 -83 -50 -36 -122 -89 -160 -117 -38 -29 -72
-53 -76 -53 -4 0 -26 -16 -50 -35 -23 -19 -47 -35 -52 -35 -5 0 -12 -7 -16
-15 -3 -8 -12 -15 -19 -15 -8 0 -22 -9 -32 -20 -10 -11 -24 -20 -30 -20 -7 0
-15 -7 -19 -15 -3 -8 -12 -15 -20 -15 -8 0 -16 -3 -18 -7 -4 -10 -74 -63 -83
-63 -3 0 -11 -5 -18 -10 -43 -36 -116 -90 -122 -90 -14 0 -74 -53 -69 -61 3
-5 -1 -6 -9 -3 -8 3 -21 -1 -28 -8 -8 -7 -43 -33 -78 -56 -82 -56 -125 -86
-131 -92 -3 -3 -25 -19 -50 -35 -51 -34 -64 -44 -88 -66 -9 -8 -42 -33 -72
-54 -30 -21 -64 -48 -74 -59 -11 -10 -21 -15 -23 -9 -4 10 14 97 43 218 8 33
19 83 25 110 5 28 16 68 23 90 8 22 21 76 31 120 20 94 27 120 100 380 8 28
18 68 24 90 5 22 19 72 31 110 12 39 25 88 31 110 5 22 12 47 16 55 3 8 15 44
25 80 29 100 35 123 47 155 43 120 173 514 174 530 1 11 4 22 8 25 8 8 33 68
59 140 13 36 27 69 32 75 4 5 8 15 8 23 0 14 25 74 56 134 8 14 14 31 14 37 0
29 259 548 294 591 7 8 16 22 20 30 13 29 101 165 121 186 5 6 17 22 25 35 19
28 117 148 142 172 10 10 15 23 12 29 -4 7 -2 8 4 4 7 -4 28 9 49 30 248 241
822 392 1218 319z m-3982 -2641 c-2 -7 -11 -39 -18 -71 -23 -100 -34 -146 -49
-198 -8 -27 -20 -72 -26 -100 -7 -27 -19 -77 -26 -110 -8 -33 -24 -100 -35
-150 -11 -49 -27 -117 -34 -150 -8 -33 -17 -73 -20 -90 -3 -16 -15 -70 -26
-120 -47 -210 -62 -283 -79 -385 -6 -30 -17 -84 -25 -120 -24 -108 -53 -259
-79 -420 -8 -52 -19 -111 -25 -130 -9 -34 -23 -119 -42 -250 -4 -36 -13 -86
-19 -111 -7 -26 -18 -91 -26 -145 -8 -55 -21 -139 -28 -189 -8 -49 -21 -142
-30 -205 -9 -63 -20 -135 -26 -160 -10 -48 -23 -147 -44 -325 -8 -60 -19 -146
-25 -190 -28 -203 -42 -314 -71 -585 -6 -58 -17 -161 -25 -230 -8 -69 -15
-153 -15 -186 0 -85 -5 -87 -130 -75 -55 6 -110 15 -120 21 -10 5 -38 10 -62
10 -24 0 -61 5 -83 11 -22 6 -69 16 -105 23 -86 18 -193 46 -205 56 -5 4 -26
10 -46 14 -21 4 -51 14 -68 22 -17 9 -37 14 -43 12 -7 -3 -21 4 -32 14 -11 10
-26 18 -33 18 -15 0 -198 94 -258 132 -98 63 -295 237 -295 260 0 5 -4 6 -10
3 -5 -3 -7 0 -5 7 3 8 -10 30 -28 51 -19 20 -32 38 -30 40 2 3 -11 33 -29 68
-34 66 -62 148 -94 279 -16 66 -18 113 -17 390 1 173 7 351 13 395 6 44 15
114 20 155 5 41 21 129 35 195 15 66 31 143 37 170 5 28 13 55 18 60 4 6 11
26 15 45 10 50 47 163 57 175 4 5 8 16 8 25 1 8 9 33 20 55 11 22 19 45 20 51
0 12 45 111 81 177 11 21 17 42 14 47 -3 6 -2 10 3 10 5 0 17 16 26 35 25 53
102 180 168 279 276 415 673 781 1143 1059 151 89 468 247 495 247 4 0 23 7
42 16 73 36 90 44 100 44 5 0 24 6 41 14 92 41 144 45 130 10z m6107 -1638
c142 -53 165 -77 165 -176 -1 -50 -7 -76 -27 -115 -68 -132 -220 -293 -431
-459 -29 -22 -54 -43 -57 -46 -3 -4 -32 -26 -65 -50 -33 -24 -62 -46 -65 -49
-13 -16 -80 -61 -89 -61 -6 0 -11 -4 -11 -9 0 -6 -11 -16 -23 -23 -13 -7 -50
-31 -82 -53 -31 -22 -65 -45 -74 -50 -19 -13 -173 -113 -251 -164 -68 -44 -88
-57 -120 -73 -14 -7 -27 -15 -30 -18 -6 -6 -7 -7 -147 -89 -56 -34 -105 -61
-107 -61 -3 0 -25 -13 -49 -30 -24 -16 -55 -34 -68 -40 -13 -6 -42 -21 -64
-34 -22 -12 -87 -48 -145 -80 -58 -31 -112 -60 -120 -66 -42 -25 -574 -294
-715 -360 -216 -102 -279 -131 -490 -220 -11 -5 -54 -24 -95 -43 -41 -19 -86
-37 -100 -41 -14 -4 -38 -14 -55 -21 -102 -47 -123 -55 -138 -55 -9 0 -18 -4
-22 -10 -3 -5 -20 -14 -38 -19 -51 -15 -119 -41 -154 -56 -17 -8 -37 -15 -45
-15 -8 0 -18 -4 -23 -9 -6 -4 -50 -20 -100 -35 -49 -16 -104 -34 -122 -42 -17
-8 -40 -14 -51 -14 -12 0 -23 -4 -26 -9 -3 -5 -18 -12 -33 -15 -16 -4 -59 -16
-98 -27 -38 -12 -95 -28 -125 -36 -30 -8 -71 -20 -89 -25 -44 -13 -128 -35
-206 -53 -33 -8 -98 -24 -145 -35 -47 -11 -119 -27 -160 -35 -131 -25 -183
-35 -255 -50 -132 -27 -164 -29 -171 -11 -3 9 -1 51 5 94 6 42 15 124 21 182
23 236 52 466 75 610 8 47 17 110 20 140 3 30 12 96 20 145 8 50 20 124 26
165 6 41 17 113 24 160 7 47 20 130 29 184 8 55 19 120 25 145 5 25 15 78 21
116 40 243 64 379 79 445 10 47 22 109 47 245 22 126 39 188 52 193 7 2 12 -3
12 -12 0 -8 7 -32 16 -53 133 -308 353 -474 668 -505 117 -11 344 -2 431 17
33 7 83 16 110 19 28 4 77 13 110 21 33 7 105 23 160 35 55 12 111 26 124 32
14 5 43 13 65 18 23 5 75 19 116 30 41 12 100 28 130 35 81 20 156 41 235 66
39 12 95 27 125 35 30 7 78 20 105 28 97 28 251 69 293 77 24 5 48 11 54 15 5
3 37 13 71 21 34 7 89 20 122 28 33 7 96 23 140 35 44 12 112 29 150 37 39 8
99 21 135 28 36 8 90 20 120 26 30 6 91 20 135 30 45 10 91 19 103 19 12 0 48
6 80 14 66 17 191 36 492 76 36 4 169 7 295 6 186 -2 239 -6 275 -20z"/>
</g>
</svg>
